<svg width="552" height="552" viewBox="0 0 552 552" fill="none" xmlns="http://www.w3.org/2000/svg">
<path d="M276.303 20.0024C317.858 20.0024 356.986 29.7109 393.687 48.5166L398.54 50.9431L394.294 54.2796C383.981 62.4692 375.791 73.0853 370.635 85.218L369.118 88.5545L366.085 87.0379C337.877 73.692 307.848 66.7157 276.607 66.7157C161.043 66.7157 67.3175 160.744 67.3175 276.005C67.3175 391.265 160.739 485.294 276.303 485.294C391.867 485.294 485.592 391.265 485.592 276.005C485.592 248.403 480.436 221.408 469.517 195.929L468 192.592L471.336 191.076C483.773 186.526 494.692 178.943 503.488 169.237L506.825 164.991L508.948 169.844C524.417 203.512 532 239.303 532 275.398C532 416.441 417.043 531.398 276 531.398C134.957 531.398 20 416.441 20 275.398C20 134.355 134.957 19.3981 276.303 20.0024ZM276.303 159.531C340.303 159.531 392.777 211.701 393.081 276.308C393.081 340.915 340.91 393.085 276.303 393.085C211.697 393.085 159.526 340.915 159.526 276.308C159.526 211.701 212 159.531 276.303 159.531ZM443.431 63.0759C472.914 63.0759 496.815 86.9766 496.815 116.46C496.815 145.943 472.914 169.844 443.431 169.844C413.948 169.844 390.047 145.943 390.047 116.46C390.047 86.9766 413.948 63.0759 443.431 63.0759Z" fill="#7B4AE2"/>
<rect x="0.5" y="0.5" width="551" height="551" rx="4.5" stroke="#7B4AE2" stroke-dasharray="10 5"/>
</svg>
